<svg width="1160" height="458" viewBox="0 0 1160 458" fill="none" xmlns="http://www.w3.org/2000/svg">
<g style="mix-blend-mode:saturation">
<path fill-rule="evenodd" clip-rule="evenodd" d="M2.48525 222.305C-6.97549 330.342 125.04 403 125.04 403L216.856 364.883C96.2081 305.668 87.3481 186.075 158.867 161.666C200.482 147.463 249.8 181.205 308.728 221.521C331.915 237.385 356.59 254.267 382.868 269.646C425.505 294.602 466.196 309.318 499.203 317.996C494.017 311.531 490.083 304.329 487.685 296.623C416.104 276.38 327.727 233.881 255.877 173.445C127.225 89.3907 11.946 114.268 2.48525 222.305Z" fill="#7D97F4" fill-opacity="0.4"></path>
</g>
<g style="mix-blend-mode:saturation">
<path fill-rule="evenodd" clip-rule="evenodd" d="M1046.54 323.687C1047.07 242.606 944.313 196.417 944.313 196.417L878.187 230.358C971.666 267.213 985.478 355.802 933.653 378.304C903.497 391.397 864.71 369.225 818.365 342.732C800.129 332.308 780.723 321.215 760.213 311.338C728.516 296.072 708.797 289.076 696.539 286.195C702.417 290.885 707.647 296.352 712.075 302.44C740.387 309.358 774.579 328.148 826.858 356.876C837.359 362.646 848.589 368.817 860.649 375.374C961.59 430.257 1046 404.769 1046.54 323.687Z" fill="#7D97F4" fill-opacity="0.4"></path>
</g>
<path d="M182.844 194.952C182.766 194.924 140.417 120.758 134.694 113.777C134.22 113.2 133.609 112.751 132.916 112.473C132.223 112.195 131.472 112.096 130.731 112.186L118.911 113.596L105.023 143.636L128.161 130.164C125.871 145.996 155.591 169.525 165.783 178.109C166.028 178.315 166.228 178.568 166.371 178.855C166.514 179.141 166.596 179.453 166.614 179.773C166.631 180.092 166.583 180.412 166.472 180.712C166.36 181.012 166.189 181.286 165.968 181.517L161.898 185.78C168.578 192.551 176.287 196.88 184.99 198.907L182.844 194.952Z" fill="url(#paint0_linear_2538_88342)"></path>
<path d="M164.253 183.478C164.253 183.478 161.655 184.3 160.775 186.631C160.585 187.179 160.579 187.773 160.759 188.324C160.939 188.875 161.294 189.352 161.77 189.682C166.046 192.745 180.155 202.636 186.664 204.572C186.786 204.608 186.916 204.61 187.04 204.58C187.164 204.55 187.278 204.488 187.371 204.401C187.464 204.313 187.532 204.203 187.57 204.081C187.607 203.959 187.612 203.83 187.584 203.705C187.251 202.192 186.17 199.183 182.688 194.755L183 195.384C183.084 195.555 183.111 195.748 183.078 195.936C183.045 196.123 182.953 196.296 182.817 196.428C182.68 196.561 182.505 196.647 182.316 196.674C182.128 196.702 181.936 196.669 181.767 196.58C177.397 194.122 168.529 188.74 164.253 183.478Z" fill="#7E40E2"></path>
<path d="M166.35 213.144C166.276 213.099 159.924 197.793 159.854 197.748C154.025 162.285 139.833 131.907 135.623 123.931C135.277 123.27 134.769 122.708 134.148 122.295C133.526 121.883 132.81 121.634 132.067 121.572L120.206 120.56L100.526 147.168L125.908 138.658C120.461 153.696 144.82 182.754 153.042 193.226C153.24 193.477 153.385 193.766 153.467 194.075C153.549 194.385 153.566 194.707 153.519 195.024C153.471 195.34 153.359 195.643 153.189 195.915C153.019 196.186 152.796 196.419 152.532 196.601L147.685 199.947C152.857 207.931 159.526 213.749 167.641 217.482L166.35 213.144Z" fill="url(#paint1_linear_2538_88342)"></path>
<path d="M150.464 198.155C150.464 198.155 147.751 198.451 146.423 200.539C146.125 201.037 145.997 201.618 146.061 202.194C146.125 202.771 146.376 203.31 146.777 203.73C150.345 207.594 162.157 220.133 168.155 223.348C168.268 223.407 168.394 223.436 168.521 223.432C168.649 223.427 168.773 223.39 168.881 223.323C168.99 223.257 169.079 223.163 169.141 223.051C169.202 222.94 169.234 222.814 169.232 222.686C169.211 221.137 168.763 217.963 166.247 212.926L166.428 213.609C166.479 213.796 166.467 213.995 166.396 214.175C166.325 214.355 166.198 214.508 166.034 214.611C165.87 214.714 165.676 214.761 165.483 214.746C165.29 214.73 165.107 214.653 164.96 214.526C161.182 211.237 153.585 204.174 150.464 198.155Z" fill="#7E40E2"></path>
<path d="M64.6843 114.936C64.6843 114.936 53.954 130.896 53.0742 138.177C52.1944 145.458 56.0425 147.974 67.2702 148.903C100.69 151.665 117.168 141.651 117.168 141.651C119.454 127.072 121.078 123.364 140.191 115.438C140.191 115.438 116.037 117.358 111.178 115.47C106.318 113.583 64.6843 114.936 64.6843 114.936Z" fill="#7B2CBF"></path>
<path d="M96.435 20.8472C96.435 20.8472 91.0904 22.9809 89.9557 25.7806C89.0307 28.0335 83.3161 27.9225 82.4281 32.4202C82.2252 33.5463 81.6577 34.5744 80.8131 35.3462C79.9684 36.1181 78.8934 36.5908 77.7537 36.6917C71.8665 37.1851 62.6903 39.5367 60.5319 49.5187C58.8874 57.1408 62.5875 60.3476 66.6494 61.6549C68.0888 62.0979 69.302 63.0788 70.0363 64.3937C70.7707 65.7085 70.9698 67.256 70.592 68.7139C69.7944 71.5917 70.4234 75.0533 75.3075 78.0997C86.2557 84.9202 99.0744 65.5071 99.0744 65.5071L103.942 30.3564L96.435 20.8472Z" fill="#532283"></path>
<path d="M93.7012 112.831C93.7012 112.831 106.195 100.933 112.35 93.0521C113.985 90.9504 115.095 88.4885 115.587 85.8713C116.079 83.2541 115.939 80.5573 115.178 78.0051C112.37 68.5494 107.367 58.7442 106.927 57.2189C106.228 54.8838 92.2171 54.9783 92.2171 54.9783C92.2171 54.9783 64.6474 72.8702 53.8185 103.182L65.9835 106.969C65.9835 106.969 73.1781 94.8898 80.2905 87.2348C80.2905 87.2348 67.9857 103.49 67.5458 110.146L93.7012 112.831Z" fill="#993FE6"></path>
<path d="M117.509 117.522L108.119 107.306L97.2778 110.225C97.2778 110.225 84.6359 112.186 77.4002 110.225L70.1645 108.268L53.8184 103.178L51.2489 110.434C50.9327 111.331 50.9174 112.306 51.2052 113.211C51.4931 114.117 52.0684 114.905 52.844 115.454C54.1409 116.424 55.516 117.285 56.9552 118.028C59.1054 118.969 106.553 118.324 106.553 118.324L117.509 117.522Z" fill="url(#paint2_linear_2538_88342)"></path>
<path d="M99.2102 37.2508L92.4308 55.6402C93.0516 59.4636 102.68 59.5705 104.164 57.2847C104.316 57.0473 104.422 56.7838 104.477 56.5077L107.527 42.1185C107.643 41.5628 107.576 40.9846 107.336 40.4702C107.096 39.9559 106.696 39.5331 106.195 39.2653L102.421 37.2919C100.994 36.5231 99.7076 35.6927 99.2102 37.2508Z" fill="url(#paint3_linear_2538_88342)"></path>
<path d="M109.019 20.3538C109.019 20.3538 113.743 24.0539 115.26 32.782C116.777 41.51 113.09 44.3139 109.55 43.8822C106.01 43.4505 100.916 41.9705 96.912 35.5077C92.9077 29.0449 102.807 15.778 109.019 20.3538Z" fill="url(#paint4_linear_2538_88342)"></path>
<path d="M101.664 32.3667C101.664 32.3667 100.727 19.9756 110.775 22.5821L112.699 24.872C112.699 24.872 118.085 19.6179 112.876 14.9805C107.667 10.343 99.9131 10.8734 95.1236 18.2982C90.334 25.723 88.41 31.0429 91.6126 36.0874C94.8152 41.1318 97.7794 37.2179 97.7794 37.2179C97.7794 37.2179 96.4515 32.9464 97.9315 31.2608C99.4116 29.5752 100.949 32.5188 100.949 32.5188L101.664 32.3667Z" fill="#532283"></path>
<path d="M101.06 32.8436C101.06 32.8436 100.616 26.4672 97.2656 28.0417C93.9149 29.6163 98.0015 34.0153 99.6583 35.5365L101.06 32.8436Z" fill="url(#paint5_linear_2538_88342)"></path>
<path d="M86.4326 121.563H86.5313L129.699 121.514C130.211 121.514 130.703 121.31 131.065 120.948C131.428 120.586 131.631 120.094 131.631 119.582C131.631 119.069 131.428 118.578 131.065 118.215C130.703 117.853 130.211 117.649 129.699 117.649L86.5313 117.695C86.0188 117.682 85.5223 117.874 85.1511 118.227C84.7799 118.581 84.5643 119.067 84.5517 119.58C84.5392 120.092 84.7307 120.589 85.0842 120.96C85.4377 121.331 85.9242 121.547 86.4367 121.559L86.4326 121.563Z" fill="#B364FF"></path>
<path d="M168.533 82.3547H132.573C131.273 82.3541 130 82.7233 128.902 83.4192C127.804 84.1152 126.927 85.1092 126.373 86.285L109.747 121.539H154.44C155.275 121.539 156.091 121.288 156.781 120.819C157.472 120.35 158.005 119.684 158.313 118.907L171.206 86.2809C171.376 85.8453 171.438 85.3747 171.385 84.9099C171.333 84.445 171.168 84 170.905 83.6133C170.641 83.2266 170.288 82.9099 169.875 82.6906C169.462 82.4713 169.001 82.356 168.533 82.3547V82.3547Z" fill="#9E40F8"></path>
<path d="M143.196 100.432C142.419 102.853 142.994 105.205 144.483 105.682C145.971 106.159 147.813 104.588 148.594 102.167C149.375 99.7452 148.795 97.3936 147.307 96.9167C145.819 96.4398 143.977 98.0308 143.196 100.432Z" fill="#BD78FF"></path>
<path d="M1132.02 292.325C1132.02 292.325 1150.78 302.716 1152.33 320.29C1153.88 337.864 1152.46 410.856 1114.85 428.82C1077.24 446.784 1027.46 442.641 1008.41 440.676C989.354 438.712 978.787 425.762 976.425 416.847C974.062 407.931 970.254 374.723 990.299 364.012C1010.34 353.3 1031.4 336.883 1052.43 320.9C1073.47 304.917 1109.52 278.825 1132.02 292.325Z" fill="#3A125F"></path>
<path d="M996.213 370.071C996.213 370.071 1001.28 370.34 1001.9 380.754C1001.9 380.754 990.158 391.277 974.303 393.78C973.098 393.969 975.967 385.656 976.397 384.539C978.434 379.171 984.866 375.736 996.213 370.071Z" fill="#9144D3"></path>
<path d="M1053.22 357.828H1042.53C1042.53 357.828 1009.75 321.619 988.245 317.963C988.245 317.963 973.279 337.072 989.049 372.771C990.319 375.643 993.87 376.921 996.51 375.23C997.279 374.75 997.876 374.038 998.214 373.197L996.948 342.717C996.948 342.717 1024.91 367.174 1029.77 371.895C1034.64 376.616 1059.34 373.727 1053.22 357.828Z" fill="#6F28AC"></path>
<path d="M949.947 433.85C954.423 429.925 961.555 425.525 971.853 424.263L975.332 426.393C973.522 428.885 971.415 431.146 969.056 433.127C965.328 435.292 959.57 438.225 954.801 438.86C950.16 439.479 949.473 436.675 949.947 433.85Z" fill="#9144D3"></path>
<path d="M976.393 384.527C979.149 385.423 980.363 389.328 987.362 386.745C992.472 384.861 997.311 382.312 1001.75 379.163C1001.81 379.665 1001.86 380.192 1001.89 380.77C1001.89 380.77 989.515 392.543 973.661 395.046C973.388 395.085 973.11 395.053 972.854 394.953C972.598 394.852 972.373 394.686 972.2 394.471C972.028 394.256 971.915 394 971.873 393.728C971.83 393.456 971.859 393.177 971.957 392.92C973.095 389.955 974.584 387.137 976.393 384.527V384.527Z" fill="#7B2CBF"></path>
<path d="M946.576 437.209C947.626 436.021 948.752 434.903 949.947 433.862C949.473 436.675 950.16 439.487 954.801 438.872C959.57 438.238 965.328 435.305 969.056 433.139C964.384 437.125 957.276 441.355 948.3 441.106C947.853 441.096 947.419 440.959 947.047 440.711C946.675 440.462 946.382 440.114 946.201 439.705C946.02 439.296 945.96 438.844 946.026 438.402C946.093 437.96 946.284 437.547 946.576 437.209V437.209Z" fill="#7B2CBF"></path>
<path d="M1052.83 365.555L1002.81 366.093C1002.81 366.093 974.239 389.726 969.056 425.766C969.056 425.766 968.197 428.418 973.359 428.872C973.359 428.872 990.636 417.59 1001.89 397.649C1015.69 373.193 1043.05 384.202 1043.05 384.202C1052.04 377.721 1064.75 376.403 1074.31 374.241L1052.83 365.555Z" fill="#7B2CBF"></path>
<path d="M1051.66 325.26C1051.66 325.26 1046.27 352.248 1019.89 362.923L1010.5 361.818L1008.27 365.35L1030.28 366.049C1030.28 366.049 1049.1 358.596 1059.07 338.286C1059.41 337.615 1064.92 326.28 1051.66 325.26Z" fill="url(#paint6_linear_2538_88342)"></path>
<path d="M1048.76 365.113C1048.76 365.113 1054.87 348.467 1056.2 332.295C1056.2 332.295 1051.72 328.446 1048.92 326.782C1048.48 326.529 1048.15 326.116 1048 325.629C1047.85 325.142 1047.89 324.616 1048.12 324.159C1050.18 319.892 1062.62 303.145 1063.56 302.916C1068.64 301.651 1089.43 291.763 1104.07 311.792C1110.35 320.386 1102.82 346.848 1074.32 374.245L1068.43 375.37L1048.76 365.113Z" fill="#993FE5"></path>
<path d="M1072.36 335.959C1072.36 335.959 1055.34 356.089 1033.58 359.03C1033.58 359.03 1027.95 353.907 1023.78 355.735C1019.6 357.563 1013.89 365.643 1013.89 365.643H1041.82C1041.82 365.643 1068.23 364.711 1081.43 348.7C1080.35 343.095 1077.17 339.748 1072.36 335.959Z" fill="url(#paint7_linear_2538_88342)"></path>
<path d="M1082.28 288.786L1086 301.201C1086.09 301.477 1086.08 301.774 1085.99 302.047C1085.89 302.32 1085.71 302.555 1085.47 302.72C1083.68 303.949 1079 306.392 1072.57 304.017C1072.21 303.883 1071.9 303.647 1071.67 303.339C1071.43 303.03 1071.3 302.662 1071.27 302.278L1070.39 291.462L1082.28 288.786Z" fill="url(#paint8_linear_2538_88342)"></path>
<path d="M1066.6 268.058C1066.6 268.058 1059.9 279.199 1061.24 285.391C1062.58 291.582 1071.93 295.379 1080.59 289.883L1086.01 272.919L1066.6 268.058Z" fill="url(#paint9_linear_2538_88342)"></path>
<path d="M1079.81 281.718C1079.72 281.685 1079.64 281.634 1079.58 281.568C1079.51 281.502 1079.47 281.422 1079.43 281.335C1079.4 281.248 1079.39 281.155 1079.4 281.063C1079.41 280.971 1079.44 280.882 1079.49 280.802C1080.1 279.766 1081.23 277.66 1081.54 275.848C1081.54 275.848 1082.97 274.836 1077.69 273.839C1072.41 272.843 1064.52 271.228 1062.67 266.852C1060.87 262.585 1064.57 251.48 1071.67 259.865C1071.73 259.94 1071.81 259.999 1071.9 260.038C1071.99 260.077 1072.08 260.096 1072.18 260.092C1072.28 260.088 1072.37 260.062 1072.46 260.016C1072.55 259.969 1072.62 259.904 1072.68 259.825C1073.71 258.346 1076.46 255.245 1080.55 256.86C1084.38 258.367 1084.93 261.099 1084.94 262.485C1084.94 262.58 1084.96 262.674 1085 262.76C1085.05 262.846 1085.11 262.921 1085.18 262.98C1085.26 263.039 1085.34 263.08 1085.44 263.101C1085.53 263.122 1085.63 263.121 1085.72 263.1C1087.6 262.65 1092.15 262.127 1094.47 266.716C1096.4 270.476 1095.37 272.706 1094.38 273.819C1094.3 273.901 1094.25 274 1094.23 274.107C1094.21 274.214 1094.21 274.326 1094.24 274.431C1094.28 274.535 1094.33 274.63 1094.41 274.705C1094.49 274.78 1094.59 274.834 1094.7 274.86C1095.96 275.185 1097.62 276.166 1097.6 279.095C1097.56 283.141 1093.03 282.996 1091.74 282.871C1091.63 282.86 1091.53 282.875 1091.43 282.914C1091.33 282.954 1091.25 283.016 1091.18 283.096C1090.13 284.35 1085.41 289.754 1080.07 290.63C1079.96 290.645 1079.85 290.633 1079.75 290.597C1079.65 290.56 1079.56 290.499 1079.49 290.419C1079.42 290.34 1079.37 290.244 1079.35 290.14C1079.32 290.037 1079.33 289.929 1079.35 289.826L1081.36 282.96C1081.41 282.806 1081.39 282.641 1081.32 282.498C1081.25 282.354 1081.13 282.242 1080.98 282.184L1079.81 281.718Z" fill="#532283"></path>
<path d="M1078.92 282.715C1078.92 282.715 1084.57 278.436 1085.16 281.791C1085.74 285.145 1080.12 286.921 1077.24 285.808L1078.92 282.715Z" fill="url(#paint10_linear_2538_88342)"></path>
<path d="M1015.28 367.206L1002.74 325.384C1002.49 324.551 1001.99 323.814 1001.31 323.271C1000.63 322.728 999.805 322.406 998.937 322.347L982.01 321.19C981.614 321.165 981.218 321.238 980.857 321.403C980.496 321.568 980.181 321.819 979.941 322.135C979.701 322.45 979.542 322.82 979.479 323.212C979.415 323.604 979.45 324.005 979.579 324.38L993.597 364.317C993.818 364.948 994.215 365.503 994.74 365.916C995.265 366.329 995.897 366.585 996.562 366.652L1013.23 368.504L1015.28 367.206Z" fill="#9E40F8"></path>
<path d="M992.155 339.575C993.091 341.464 994.71 342.573 995.771 342.05C996.832 341.528 996.928 339.567 995.992 337.679C995.056 335.79 993.441 334.682 992.376 335.204C991.311 335.726 991.219 337.671 992.155 339.575Z" fill="#BD78FF"></path>
<path d="M1013.23 368.504H1013.31L1048.85 366.704C1049.08 366.725 1049.31 366.696 1049.52 366.62C1049.74 366.544 1049.94 366.422 1050.11 366.262C1050.27 366.103 1050.4 365.91 1050.49 365.696C1050.57 365.482 1050.61 365.252 1050.6 365.022C1050.59 364.792 1050.53 364.568 1050.42 364.363C1050.31 364.159 1050.16 363.98 1049.98 363.838C1049.8 363.696 1049.59 363.595 1049.37 363.541C1049.14 363.487 1048.91 363.482 1048.69 363.526L1013.16 365.322C1012.78 365.385 1012.43 365.585 1012.18 365.883C1011.94 366.182 1011.81 366.56 1011.82 366.948C1011.83 367.335 1011.98 367.706 1012.24 367.992C1012.5 368.278 1012.86 368.46 1013.24 368.504H1013.23Z" fill="#B364FF"></path>
<path d="M1056.2 332.496C1056.15 332.496 1056.09 332.475 1056.06 332.437C1056.02 332.399 1056 332.348 1056 332.295C1055.97 324.802 1058.86 314.886 1058.89 314.785C1058.89 314.76 1058.91 314.736 1058.92 314.715C1058.94 314.694 1058.96 314.676 1058.98 314.664C1059.01 314.651 1059.03 314.643 1059.06 314.64C1059.08 314.638 1059.11 314.641 1059.14 314.649C1059.19 314.663 1059.23 314.698 1059.26 314.745C1059.28 314.791 1059.29 314.846 1059.27 314.898C1059.24 314.998 1056.38 324.862 1056.4 332.295C1056.4 332.348 1056.38 332.399 1056.34 332.437C1056.3 332.475 1056.25 332.496 1056.2 332.496Z" fill="#8C32D8"></path>
<path d="M1072.35 336.144C1072.31 336.143 1072.27 336.128 1072.23 336.1C1072.19 336.067 1072.16 336.019 1072.16 335.966C1072.15 335.913 1072.17 335.86 1072.2 335.819C1072.27 335.718 1080 325.899 1082.64 319.193C1082.66 319.143 1082.7 319.103 1082.75 319.082C1082.8 319.061 1082.86 319.061 1082.91 319.08C1082.96 319.1 1083 319.139 1083.02 319.187C1083.04 319.236 1083.04 319.292 1083.02 319.341C1080.35 326.099 1072.57 335.967 1072.51 336.068C1072.49 336.091 1072.47 336.11 1072.44 336.123C1072.41 336.136 1072.38 336.144 1072.35 336.144V336.144Z" fill="#8C32D8"></path>
<path d="M1083.32 351.227L1081.93 349.27C1081.9 349.226 1081.89 349.172 1081.9 349.12C1081.91 349.067 1081.94 349.021 1081.98 348.989C1082 348.974 1082.03 348.963 1082.05 348.957C1082.08 348.951 1082.11 348.95 1082.13 348.955C1082.16 348.959 1082.18 348.969 1082.21 348.983C1082.23 348.997 1082.25 349.016 1082.26 349.037L1083.47 350.729C1094.47 345.928 1101.27 332.781 1101.34 332.649C1101.36 332.601 1101.4 332.565 1101.45 332.549C1101.5 332.532 1101.56 332.536 1101.61 332.56C1101.65 332.585 1101.69 332.627 1101.7 332.677C1101.72 332.727 1101.72 332.782 1101.69 332.829C1101.63 332.966 1094.69 346.361 1083.48 351.163L1083.32 351.227Z" fill="#8C32D8"></path>
<g style="mix-blend-mode:saturation">
<path d="M423.734 405.272C423.734 405.272 411.249 306.041 350.817 287.596C292.822 269.903 283.8 298.473 251.852 265.344C251.533 265.011 251.118 264.785 250.665 264.697C250.212 264.609 249.743 264.663 249.322 264.852C248.901 265.041 248.549 265.355 248.314 265.752C248.078 266.149 247.971 266.608 248.007 267.068C249.827 289.536 260.828 364.603 326.548 365.982C402.474 367.548 423.734 405.272 423.734 405.272Z" fill="#3A0D63"></path>
<path d="M419.819 390.283C419.732 390.282 419.648 390.258 419.574 390.214C419.501 390.169 419.44 390.105 419.4 390.029L418.338 388.041C404.791 362.625 389.438 333.829 333.57 325.145C303.716 320.514 285.699 310.372 275.817 302.681C265.085 294.317 261.493 287.146 261.344 286.829C261.296 286.717 261.293 286.59 261.335 286.476C261.377 286.361 261.462 286.267 261.571 286.214C261.681 286.16 261.807 286.15 261.924 286.187C262.04 286.224 262.138 286.304 262.197 286.41C262.232 286.483 265.875 293.724 276.464 301.945C286.244 309.554 304.112 319.581 333.723 324.175C358.822 328.072 378.069 336.435 392.567 349.747C405.226 361.373 412.641 375.287 419.197 387.566L420.256 389.553C420.313 389.663 420.324 389.791 420.288 389.91C420.252 390.028 420.171 390.128 420.063 390.187C419.992 390.241 419.907 390.274 419.819 390.283V390.283Z" fill="#BDD0FB"></path>
<g style="mix-blend-mode:saturation">
<path d="M429.739 409L422.995 406.733C416.074 359.553 389.323 275.891 337.844 262.544C302.97 253.503 287.499 238.421 281.815 200.346C278.011 174.949 266.005 159.401 258.424 151.866C258.093 151.536 257.878 151.107 257.814 150.643C257.751 150.18 257.841 149.709 258.071 149.302C258.301 148.895 258.659 148.574 259.088 148.39C259.518 148.206 259.997 148.169 260.45 148.283C281.675 153.647 337.689 170.973 370.105 210.624C410.685 260.249 429.739 409 429.739 409Z" fill="#41126C"></path>
</g>
<path d="M426.242 393.117C426.128 393.117 426.018 393.077 425.932 393.003C425.846 392.929 425.789 392.826 425.772 392.714C425.741 392.511 422.482 372.161 414.404 344.291C406.95 318.583 393.755 281.021 373.212 248.132C352.668 215.243 332.863 196.951 319.856 187.383C305.798 177.041 296.5 174.426 296.395 174.4C296.279 174.362 296.183 174.281 296.125 174.174C296.067 174.066 296.053 173.941 296.085 173.823C296.117 173.706 296.194 173.605 296.298 173.542C296.402 173.479 296.527 173.458 296.646 173.484C296.738 173.509 306.207 176.169 320.407 186.615C333.482 196.234 353.394 214.628 374.008 247.628C394.621 280.628 407.854 318.266 415.323 344.04C423.414 371.964 426.679 392.362 426.711 392.565C426.721 392.627 426.718 392.69 426.704 392.751C426.689 392.812 426.663 392.869 426.626 392.92C426.589 392.971 426.543 393.014 426.489 393.046C426.436 393.079 426.376 393.101 426.315 393.11L426.242 393.117Z" fill="url(#paint11_linear_2538_88342)"></path>
<path d="M435.505 386.263C435.434 386.562 435.26 386.827 435.014 387.012C434.768 387.198 434.466 387.292 434.158 387.278C433.851 387.265 433.558 387.144 433.329 386.938C433.1 386.732 432.951 386.453 432.906 386.148C429.016 360.637 410.396 249.302 374.756 198.729C334.838 142.072 274.044 91.1193 367.305 19.3371C367.561 19.1412 367.868 19.0252 368.189 19.0037C368.51 18.9821 368.83 19.056 369.109 19.216C369.388 19.376 369.613 19.6149 369.756 19.9027C369.9 20.1906 369.955 20.5144 369.915 20.8335C368.837 28.9907 368.52 48.2471 384.352 67.0946C405.188 91.9055 418.804 140.376 398.21 198.625C398.21 198.625 445.634 344.579 435.505 386.263Z" fill="#3A0D63"></path>
<path d="M358.311 40.911C358.311 40.911 357.807 41.3517 356.936 42.2774C355.687 43.621 354.523 45.0397 353.448 46.5256C351.764 48.8303 350.247 51.2534 348.911 53.7761C348.141 55.2376 347.371 56.8228 346.629 58.5316C345.887 60.2404 345.193 62.057 344.54 63.9845C343.151 68.1412 342.123 72.4093 341.464 76.7419C341.103 79.0435 340.865 81.4276 340.685 83.8687C340.504 86.3099 340.463 88.8144 340.497 91.357C340.599 96.5865 341.081 101.802 341.94 106.961C342.845 112.286 344.073 117.551 345.618 122.727C347.164 127.903 348.971 132.997 351.032 137.989C353.061 142.935 355.281 147.709 357.573 152.256C359.865 156.802 362.274 161.094 364.611 165.133C365.819 167.134 366.954 169.099 368.133 170.951L369.848 173.696L371.547 176.312L373.183 178.813C373.733 179.621 374.268 180.409 374.788 181.178C375.307 181.948 375.815 182.696 376.309 183.423L377.787 185.515C379.689 188.232 381.401 190.55 382.802 192.468C384.203 194.386 385.361 195.857 386.121 196.874L387.304 198.431C387.344 198.481 387.374 198.538 387.392 198.599C387.41 198.66 387.415 198.725 387.408 198.788C387.4 198.852 387.38 198.913 387.348 198.968C387.316 199.024 387.274 199.072 387.223 199.111C387.172 199.149 387.113 199.177 387.051 199.193C386.99 199.209 386.925 199.211 386.862 199.202C386.799 199.192 386.738 199.169 386.684 199.135C386.63 199.102 386.583 199.057 386.546 199.005V199.005L385.37 197.439C384.606 196.415 383.468 194.934 382.057 193C380.646 191.066 378.941 188.743 377.054 186.026L375.583 183.921L374.065 181.663L372.48 179.289C371.947 178.467 371.403 177.628 370.847 176.772L369.154 174.143L367.445 171.385C366.266 169.521 365.134 167.546 363.936 165.536C361.605 161.475 359.199 157.16 356.92 152.588C354.64 148.017 352.431 143.217 350.411 138.246C348.364 133.224 346.57 128.103 345.037 122.902C343.504 117.697 342.29 112.403 341.401 107.05C340.549 101.858 340.077 96.6112 339.987 91.3507C339.959 88.7954 340.038 86.2782 340.203 83.8243C340.367 81.3705 340.64 78.9769 341.014 76.6626C341.692 72.3093 342.742 68.0221 344.153 63.8482C344.822 61.9112 345.535 60.0851 346.277 58.3763C347.019 56.6675 347.808 55.0823 348.591 53.6208C349.944 51.0894 351.477 48.6588 353.179 46.3481C354.272 44.8564 355.454 43.4324 356.72 42.084C357.598 41.1551 358.121 40.7049 358.121 40.7049C358.135 40.6901 358.152 40.6784 358.17 40.6705C358.189 40.6627 358.209 40.6588 358.229 40.6592C358.249 40.6596 358.269 40.6643 358.287 40.6729C358.305 40.6815 358.321 40.6939 358.334 40.7093C358.348 40.7246 358.357 40.7425 358.363 40.7619C358.369 40.7812 358.37 40.8015 358.367 40.8215C358.364 40.8414 358.357 40.8606 358.347 40.8777C358.336 40.8947 358.322 40.9093 358.305 40.9205L358.311 40.911Z" fill="#BDD0FB"></path>
</g>
<defs>
<linearGradient id="paint0_linear_2538_88342" x1="175.933" y1="107.704" x2="124.753" y2="211.303" gradientUnits="userSpaceOnUse">
<stop stop-color="#FF928E"></stop>
<stop offset="1" stop-color="#FEB3B1"></stop>
</linearGradient>
<linearGradient id="paint1_linear_2538_88342" x1="246.453" y1="-35.2501" x2="188.481" y2="76.9938" gradientUnits="userSpaceOnUse">
<stop stop-color="#FF928E"></stop>
<stop offset="1" stop-color="#FEB3B1"></stop>
</linearGradient>
<linearGradient id="paint2_linear_2538_88342" x1="5.14999" y1="157.528" x2="101.96" y2="100.798" gradientUnits="userSpaceOnUse">
<stop stop-color="#FF928E"></stop>
<stop offset="1" stop-color="#FEB3B1"></stop>
</linearGradient>
<linearGradient id="paint3_linear_2538_88342" x1="107.692" y1="25.982" x2="93.3024" y2="72.8497" gradientUnits="userSpaceOnUse">
<stop stop-color="#FF928E"></stop>
<stop offset="1" stop-color="#FEB3B1"></stop>
</linearGradient>
<linearGradient id="paint4_linear_2538_88342" x1="102.183" y1="14.6187" x2="107.527" y2="42.7804" gradientUnits="userSpaceOnUse">
<stop stop-color="#FF928E"></stop>
<stop offset="1" stop-color="#FEB3B1"></stop>
</linearGradient>
<linearGradient id="paint5_linear_2538_88342" x1="95.4525" y1="15.1408" x2="100.797" y2="43.3025" gradientUnits="userSpaceOnUse">
<stop stop-color="#FF928E"></stop>
<stop offset="1" stop-color="#FEB3B1"></stop>
</linearGradient>
<linearGradient id="paint6_linear_2538_88342" x1="1032.04" y1="315.814" x2="1038.47" y2="406.617" gradientUnits="userSpaceOnUse">
<stop stop-color="#FF928E"></stop>
<stop offset="1" stop-color="#FEB3B1"></stop>
</linearGradient>
<linearGradient id="paint7_linear_2538_88342" x1="1048.9" y1="285.792" x2="1048.09" y2="331.596" gradientUnits="userSpaceOnUse">
<stop stop-color="#FF928E"></stop>
<stop offset="1" stop-color="#FEB3B1"></stop>
</linearGradient>
<linearGradient id="paint8_linear_2538_88342" x1="1073.03" y1="278.966" x2="1083.75" y2="322.628" gradientUnits="userSpaceOnUse">
<stop stop-color="#FF928E"></stop>
<stop offset="1" stop-color="#FEB3B1"></stop>
</linearGradient>
<linearGradient id="paint9_linear_2538_88342" x1="885.91" y1="1470.17" x2="891.96" y2="1431.91" gradientUnits="userSpaceOnUse">
<stop stop-color="#FF928E"></stop>
<stop offset="1" stop-color="#FEB3B1"></stop>
</linearGradient>
<linearGradient id="paint10_linear_2538_88342" x1="894.432" y1="1471.52" x2="900.482" y2="1433.25" gradientUnits="userSpaceOnUse">
<stop stop-color="#FF928E"></stop>
<stop offset="1" stop-color="#FEB3B1"></stop>
</linearGradient>
<linearGradient id="paint11_linear_2538_88342" x1="296.056" y1="283.291" x2="426.717" y2="283.291" gradientUnits="userSpaceOnUse">
<stop stop-color="#DAE3FE"></stop>
<stop offset="1" stop-color="#E9EFFD"></stop>
</linearGradient>
</defs>
</svg>